<svg version="1.1" id="Layer_1" xmlns="http://www.w3.org/2000/svg" xmlns:xlink="http://www.w3.org/1999/xlink" x="0px" y="0px"
	 width="100%" viewBox="0 0 275 57" enable-background="new 0 0 275 57" xml:space="preserve">
<path fill="#010101" opacity="1.000000" stroke="none" 
	d="
M201.000000,58.000000 
	C134.000031,58.000000 67.500069,58.000000 1.000080,58.000000 
	C1.000054,39.000046 1.000054,20.000092 1.000027,1.000103 
	C92.666573,1.000069 184.333145,1.000069 275.999817,1.000034 
	C275.999878,19.999895 275.999878,38.999790 275.999939,57.999840 
	C251.166672,58.000000 226.333328,58.000000 201.000000,58.000000 
M18.748631,49.012848 
	C26.576521,49.011440 34.405048,49.070843 42.232094,48.989082 
	C48.312721,48.925564 53.340054,46.050968 54.545193,41.515915 
	C55.951954,36.222157 55.104248,31.381741 49.438736,28.320179 
	C54.382534,24.923109 54.926540,20.351845 53.516155,15.646827 
	C52.318958,11.653010 48.923328,9.280810 44.852726,9.180761 
	C34.130222,8.917217 23.396952,9.091629 13.419456,9.091629 
	C13.419456,22.566389 13.419456,35.689510 13.419456,49.012848 
	C14.512397,49.012848 16.169821,49.012848 18.748631,49.012848 
M244.841705,34.223495 
	C244.832016,22.900696 240.070984,16.495277 230.831833,16.113304 
	C223.041672,15.791237 215.227600,16.047010 207.317673,16.047010 
	C209.657089,20.031601 209.779449,44.641426 207.587204,48.815430 
	C207.912430,48.875343 208.237518,48.986633 208.562912,48.987572 
	C214.879440,49.005772 221.196075,49.037846 227.512482,49.013035 
	C238.079376,48.971531 242.379349,45.495163 244.841705,34.223495 
M135.732864,43.421284 
	C129.465485,44.687271 123.856438,43.183315 118.652130,39.143631 
	C117.601295,41.733055 116.618347,44.155197 115.626999,46.598042 
	C117.701149,47.205429 119.540764,48.114883 121.428719,48.229736 
	C127.938576,48.625748 134.586044,49.609192 140.950943,48.720520 
	C147.067261,47.866558 149.353058,43.674408 149.018906,38.001305 
	C148.742111,33.302265 145.614502,30.092022 139.851349,29.127571 
	C135.764725,28.443682 131.571045,28.387877 127.494484,27.662233 
	C126.181831,27.428576 125.090034,25.954159 123.897202,25.047361 
	C125.031219,23.998104 125.997238,22.399052 127.327660,21.992523 
	C133.916229,19.979309 139.867310,21.546225 145.327866,26.289669 
	C146.686584,23.621479 147.928986,21.181730 148.940735,19.194901 
	C146.249237,18.238934 143.971146,17.411913 141.681000,16.619795 
	C135.195251,14.376499 128.742020,13.991849 122.300293,16.855013 
	C118.163483,18.693705 116.072250,22.073446 116.286827,26.317623 
	C116.513535,30.801945 118.916046,34.233631 123.736542,35.059654 
	C127.978172,35.786491 132.303452,36.063072 136.511581,36.928478 
	C138.155899,37.266632 139.581329,38.669098 141.106461,39.586811 
	C139.587952,40.807785 138.069443,42.028755 135.732864,43.421284 
M194.010574,20.275784 
	C194.010574,18.288559 194.010574,16.301334 194.010574,15.289441 
	C183.038956,15.289441 172.227081,15.289441 162.192764,15.289441 
	C163.581360,27.102732 163.398499,37.960247 162.413025,48.917858 
	C172.726562,49.536598 183.869003,48.186031 194.736603,49.644466 
	C194.736603,47.393654 194.736603,44.358719 194.736603,42.165070 
	C186.931198,42.165070 179.335373,42.165070 171.868073,42.165070 
	C171.868073,40.044434 171.868073,37.639355 171.868073,34.770985 
	C176.986649,35.058895 181.746765,35.326637 186.461914,35.591854 
	C186.461914,33.530563 186.461914,30.386454 186.461914,28.306644 
	C181.415680,28.617561 176.672913,28.909781 171.776825,29.211445 
	C171.776825,26.486712 171.776825,24.422577 171.776825,22.815044 
	C179.288132,22.815044 186.546890,22.815044 193.935089,22.815044 
	C193.936279,22.788689 193.973389,21.963837 194.010574,20.275784 
M90.230545,19.392874 
	C90.673134,18.337044 91.115723,17.281214 91.621971,16.073521 
	C87.194656,16.073521 83.203423,16.073521 80.551865,16.073521 
	C77.622688,28.344746 70.495979,38.115711 65.888802,48.824062 
	C68.992165,48.824062 72.901047,48.824062 76.915565,48.824062 
	C74.461685,44.336739 76.291000,41.081982 81.104706,41.022308 
	C83.437035,40.993397 85.796165,40.804192 88.094261,41.086159 
	C89.865135,41.303432 92.253860,41.641411 93.113350,42.831642 
	C94.199890,44.336269 94.013367,46.760212 94.379837,48.809349 
	C97.984070,48.809349 102.081505,48.809349 105.554344,48.809349 
	C100.567261,39.295219 95.532784,29.690662 90.230545,19.392874 
M259.082886,42.461845 
	C257.713745,45.529705 258.451843,48.431984 261.377411,49.530178 
	C263.006653,50.141766 266.496735,49.212509 267.241425,47.897690 
	C268.167847,46.262016 267.934845,42.862167 266.752014,41.388222 
	C264.773560,38.922771 261.795837,39.219711 259.082886,42.461845 
z"/>
<path fill="#EFEFEF" opacity="1.000000" stroke="none" 
	d="
M18.287937,49.012848 
	C16.169821,49.012848 14.512397,49.012848 13.419456,49.012848 
	C13.419456,35.689510 13.419456,22.566389 13.419456,9.091629 
	C23.396952,9.091629 34.130222,8.917217 44.852726,9.180761 
	C48.923328,9.280810 52.318958,11.653010 53.516155,15.646827 
	C54.926540,20.351845 54.382534,24.923109 49.438736,28.320179 
	C55.104248,31.381741 55.951954,36.222157 54.545193,41.515915 
	C53.340054,46.050968 48.312721,48.925564 42.232094,48.989082 
	C34.405048,49.070843 26.576521,49.011440 18.287937,49.012848 
M26.551970,41.989155 
	C31.512590,41.815033 36.526752,41.999523 41.404648,41.271290 
	C43.100269,41.018150 44.458675,38.506248 45.971096,37.025978 
	C44.475368,35.533012 43.081089,32.895519 41.465714,32.752331 
	C35.596447,32.232079 29.653141,32.547085 23.547831,32.547085 
	C23.547831,34.669949 23.330507,36.852768 23.638012,38.958961 
	C23.795643,40.038639 24.891346,40.981354 26.551970,41.989155 
M34.361340,16.012989 
	C30.800467,16.012989 27.239594,16.012989 23.693352,16.012989 
	C23.693352,19.299194 23.693352,21.916290 23.693352,25.230627 
	C29.891159,24.933130 35.952206,24.829191 41.956314,24.190205 
	C43.104515,24.068007 44.806648,21.855049 44.836056,20.574146 
	C44.865284,19.300924 43.359516,17.328377 42.078323,16.840572 
	C40.016525,16.055557 37.586067,16.238815 34.361340,16.012989 
z"/>
<path fill="#ECECEC" opacity="1.000000" stroke="none" 
	d="
M244.836639,34.652683 
	C242.379349,45.495163 238.079376,48.971531 227.512482,49.013035 
	C221.196075,49.037846 214.879440,49.005772 208.562912,48.987572 
	C208.237518,48.986633 207.912430,48.875343 207.587616,48.813217 
	C209.779449,44.641426 209.657089,20.031601 207.317673,16.047010 
	C215.227600,16.047010 223.041672,15.791237 230.831833,16.113304 
	C240.070984,16.495277 244.832016,22.900696 244.836639,34.652683 
M217.564438,27.532303 
	C217.564438,32.599277 217.564438,37.666256 217.564438,42.995956 
	C224.116180,42.579948 231.297012,44.996326 234.699814,38.319195 
	C236.359177,35.063152 236.310318,29.297245 234.452454,26.233089 
	C230.711548,20.063213 223.707428,22.304399 217.564438,22.105986 
	C217.564438,23.899143 217.564438,25.219410 217.564438,27.532303 
z"/>
<path fill="#EBEBEB" opacity="1.000000" stroke="none" 
	d="
M136.141907,43.335503 
	C138.069443,42.028755 139.587952,40.807785 141.106461,39.586815 
	C139.581329,38.669098 138.155899,37.266632 136.511581,36.928478 
	C132.303452,36.063072 127.978172,35.786491 123.736542,35.059654 
	C118.916046,34.233631 116.513535,30.801945 116.286827,26.317623 
	C116.072250,22.073446 118.163483,18.693705 122.300293,16.855013 
	C128.742020,13.991849 135.195251,14.376499 141.681000,16.619795 
	C143.971146,17.411913 146.249237,18.238934 148.940735,19.194901 
	C147.928986,21.181730 146.686584,23.621479 145.327866,26.289669 
	C139.867310,21.546225 133.916229,19.979309 127.327660,21.992523 
	C125.997238,22.399052 125.031219,23.998104 123.897202,25.047361 
	C125.090034,25.954159 126.181831,27.428576 127.494484,27.662233 
	C131.571045,28.387877 135.764725,28.443682 139.851349,29.127571 
	C145.614502,30.092022 148.742111,33.302265 149.018906,38.001305 
	C149.353058,43.674408 147.067261,47.866558 140.950943,48.720520 
	C134.586044,49.609192 127.938576,48.625748 121.428719,48.229736 
	C119.540764,48.114883 117.701149,47.205429 115.626999,46.598042 
	C116.618347,44.155197 117.601295,41.733055 118.652130,39.143631 
	C123.856438,43.183315 129.465485,44.687271 136.141907,43.335503 
z"/>
<path fill="#F0F0F0" opacity="1.000000" stroke="none" 
	d="
M194.010529,20.707384 
	C193.973389,21.963837 193.936279,22.788689 193.935089,22.815044 
	C186.546890,22.815044 179.288132,22.815044 171.776825,22.815044 
	C171.776825,24.422577 171.776825,26.486712 171.776825,29.211445 
	C176.672913,28.909781 181.415680,28.617561 186.461914,28.306644 
	C186.461914,30.386454 186.461914,33.530563 186.461914,35.591854 
	C181.746765,35.326637 176.986649,35.058895 171.868073,34.770985 
	C171.868073,37.639355 171.868073,40.044434 171.868073,42.165070 
	C179.335373,42.165070 186.931198,42.165070 194.736603,42.165070 
	C194.736603,44.358719 194.736603,47.393654 194.736603,49.644466 
	C183.869003,48.186031 172.726562,49.536598 162.413025,48.917858 
	C163.398499,37.960247 163.581360,27.102732 162.192764,15.289441 
	C172.227081,15.289441 183.038956,15.289441 194.010574,15.289441 
	C194.010574,16.301334 194.010574,18.288559 194.010529,20.707384 
z"/>
<path fill="#EDEDED" opacity="1.000000" stroke="none" 
	d="
M90.364426,19.739491 
	C95.532784,29.690662 100.567261,39.295219 105.554344,48.809349 
	C102.081505,48.809349 97.984070,48.809349 94.379837,48.809349 
	C94.013367,46.760212 94.199890,44.336269 93.113350,42.831642 
	C92.253860,41.641411 89.865135,41.303432 88.094261,41.086159 
	C85.796165,40.804192 83.437035,40.993397 81.104706,41.022308 
	C76.291000,41.081982 74.461685,44.336739 76.915565,48.824062 
	C72.901047,48.824062 68.992165,48.824062 65.888802,48.824062 
	C70.495979,38.115711 77.622688,28.344746 80.551865,16.073521 
	C83.203423,16.073521 87.194656,16.073521 91.621971,16.073521 
	C91.115723,17.281214 90.673134,18.337044 90.364426,19.739491 
M86.334892,29.259949 
	C85.817230,28.458042 85.299561,27.656136 84.529625,26.463432 
	C82.993866,29.726522 81.644539,32.593498 80.218025,35.624481 
	C83.482376,35.624481 86.268440,35.624481 89.469383,35.624481 
	C88.424294,33.417229 87.594421,31.664526 86.334892,29.259949 
z"/>
<path fill="#EAEAEA" opacity="1.000000" stroke="none" 
	d="
M259.303101,42.154022 
	C261.795837,39.219711 264.773560,38.922771 266.752014,41.388222 
	C267.934845,42.862167 268.167847,46.262016 267.241425,47.897690 
	C266.496735,49.212509 263.006653,50.141766 261.377411,49.530178 
	C258.451843,48.431984 257.713745,45.529705 259.303101,42.154022 
z"/>
<path fill="#020202" opacity="1.000000" stroke="none" 
	d="
M26.057537,41.987564 
	C24.891346,40.981354 23.795643,40.038639 23.638012,38.958961 
	C23.330507,36.852768 23.547831,34.669949 23.547831,32.547085 
	C29.653141,32.547085 35.596447,32.232079 41.465714,32.752331 
	C43.081089,32.895519 44.475368,35.533012 45.971096,37.025978 
	C44.458675,38.506248 43.100269,41.018150 41.404648,41.271290 
	C36.526752,41.999523 31.512590,41.815033 26.057537,41.987564 
z"/>
<path fill="#010101" opacity="1.000000" stroke="none" 
	d="
M34.836349,16.012989 
	C37.586067,16.238815 40.016525,16.055557 42.078323,16.840572 
	C43.359516,17.328377 44.865284,19.300924 44.836056,20.574146 
	C44.806648,21.855049 43.104515,24.068007 41.956314,24.190205 
	C35.952206,24.829191 29.891159,24.933130 23.693352,25.230627 
	C23.693352,21.916290 23.693352,19.299194 23.693352,16.012989 
	C27.239594,16.012989 30.800467,16.012989 34.836349,16.012989 
z"/>
<path fill="#000000" opacity="1.000000" stroke="none" 
	d="
M217.564438,27.035990 
	C217.564438,25.219410 217.564438,23.899143 217.564438,22.105986 
	C223.707428,22.304399 230.711548,20.063213 234.452454,26.233089 
	C236.310318,29.297245 236.359177,35.063152 234.699814,38.319195 
	C231.297012,44.996326 224.116180,42.579948 217.564438,42.995956 
	C217.564438,37.666256 217.564438,32.599277 217.564438,27.035990 
z"/>
<path fill="#010101" opacity="1.000000" stroke="none" 
	d="
M86.549721,29.585886 
	C87.594421,31.664526 88.424294,33.417229 89.469383,35.624481 
	C86.268440,35.624481 83.482376,35.624481 80.218025,35.624481 
	C81.644539,32.593498 82.993866,29.726522 84.529625,26.463432 
	C85.299561,27.656136 85.817230,28.458042 86.549721,29.585886 
z"/>
</svg>